<svg xmlns="http://www.w3.org/2000/svg" viewBox="0 0 420 300" fill="none">
  <defs>
    <linearGradient id="bg" x1="0" y1="0" x2="420" y2="300" gradientUnits="userSpaceOnUse">
      <stop stop-color="#0a0d20"/><stop offset="1" stop-color="#151934"/>
    </linearGradient>
    <linearGradient id="pg" x1="0" y1="0" x2="1" y2="1">
      <stop stop-color="#E2CBFF"/><stop offset="1" stop-color="#7C3AED"/>
    </linearGradient>
    <radialGradient id="rad" cx="0.5" cy="0.5" r="0.55">
      <stop stop-color="#7C3AED" stop-opacity="0.40"/><stop offset="1" stop-color="#7C3AED" stop-opacity="0"/>
    </radialGradient>
    <pattern id="dots" width="24" height="24" patternUnits="userSpaceOnUse">
      <circle cx="2" cy="2" r="1.4" fill="#8ea0ff" opacity="0.06"/>
    </pattern>
    <filter id="glow" x="-60%" y="-60%" width="220%" height="220%">
      <feGaussianBlur stdDeviation="3.4" result="b"/>
      <feMerge><feMergeNode in="b"/><feMergeNode in="SourceGraphic"/></feMerge>
    </filter>
  </defs>
  <rect width="420" height="300" fill="url(#bg)"/>
  <rect width="420" height="300" fill="url(#dots)"/>
  <ellipse cx="210" cy="150" rx="170" ry="130" fill="url(#rad)"/>

  <g stroke="#A78BFA" stroke-width="1.3" opacity="0.45">
    <line x1="210" y1="150" x2="70" y2="70"/>
    <line x1="210" y1="150" x2="60" y2="200"/>
    <line x1="210" y1="150" x2="350" y2="80"/>
    <line x1="210" y1="150" x2="360" y2="210"/>
    <line x1="210" y1="150" x2="150" y2="250"/>
    <line x1="210" y1="150" x2="300" y2="250"/>
    <line x1="70" y1="70" x2="150" y2="40"/>
    <line x1="350" y1="80" x2="360" y2="210"/>
  </g>

  <g fill="#34D399">
    <circle cx="140" cy="110" r="2.6"/>
    <circle cx="285" cy="115" r="2.6"/>
    <circle cx="255" cy="205" r="2.6"/>
  </g>

  <g>
    <circle cx="70" cy="70" r="7" fill="#0d1030" stroke="url(#pg)" stroke-width="2"/>
    <circle cx="60" cy="200" r="7" fill="#0d1030" stroke="url(#pg)" stroke-width="2"/>
    <circle cx="150" cy="40" r="5.5" fill="#0d1030" stroke="#A78BFA" stroke-width="1.8"/>
    <circle cx="150" cy="250" r="6.5" fill="#0d1030" stroke="url(#pg)" stroke-width="2"/>
    <circle cx="300" cy="250" r="6.5" fill="#0d1030" stroke="url(#pg)" stroke-width="2"/>
    <circle cx="350" cy="80" r="8" fill="#2a0f1a" stroke="#F87171" stroke-width="2.2" filter="url(#glow)"/>
    <circle cx="360" cy="210" r="7" fill="#2a0f1a" stroke="#FBBF24" stroke-width="2"/>
  </g>

  <g stroke="#8B5CF6" fill="none" opacity="0.25">
    <circle cx="210" cy="150" r="54"/>
    <circle cx="210" cy="150" r="74" opacity="0.6"/>
  </g>

  <g filter="url(#glow)">
    <path d="M210 96 L250 112 V162 C250 194 232 210 210 220 C188 210 170 194 170 162 V112 Z"
          fill="#0d1030" stroke="url(#pg)" stroke-width="3"/>
    <path d="M193 154 L205 166 L229 138" stroke="#34D399" stroke-width="4" fill="none"
          stroke-linecap="round" stroke-linejoin="round"/>
  </g>

  <g filter="url(#glow)">
    <path d="M378 34 L398 74 H358 Z" fill="#F87171"/>
    <rect x="386.5" y="46" width="3" height="14" rx="1.5" fill="#1a0b12"/>
    <circle cx="388" cy="66" r="2" fill="#1a0b12"/>
  </g>

  <line x1="24" y1="150" x2="396" y2="150" stroke="#60A5FA" stroke-width="1" opacity="0.15"/>

  <g>
    <rect x="24" y="262" width="176" height="24" rx="12" fill="#ffffff" opacity="0.06"/>
    <circle cx="40" cy="274" r="4" fill="#F87171"/>
    <text x="52" y="278" font-family="ui-monospace,Menlo,monospace" font-size="11" fill="#c9cffb">intrusion detected</text>
  </g>
  <text x="24" y="42" font-family="ui-monospace,Menlo,monospace" font-size="13" fill="#CBACF9" font-weight="700">NIDS</text>
</svg>
