<svg xmlns="http://www.w3.org/2000/svg" viewBox="0 0 420 300" fill="none">
  <defs>
    <linearGradient id="bg" x1="0" y1="0" x2="420" y2="300" gradientUnits="userSpaceOnUse">
      <stop stop-color="#0a0d20"/><stop offset="1" stop-color="#151934"/>
    </linearGradient>
    <linearGradient id="pg" x1="0" y1="0" x2="1" y2="1">
      <stop stop-color="#E2CBFF"/><stop offset="1" stop-color="#7C3AED"/>
    </linearGradient>
    <radialGradient id="rad" cx="0.5" cy="0.5" r="0.55">
      <stop stop-color="#7C3AED" stop-opacity="0.40"/><stop offset="1" stop-color="#7C3AED" stop-opacity="0"/>
    </radialGradient>
    <pattern id="dots" width="24" height="24" patternUnits="userSpaceOnUse">
      <circle cx="2" cy="2" r="1.4" fill="#8ea0ff" opacity="0.06"/>
    </pattern>
    <filter id="glow" x="-60%" y="-60%" width="220%" height="220%">
      <feGaussianBlur stdDeviation="3.4" result="b"/>
      <feMerge><feMergeNode in="b"/><feMergeNode in="SourceGraphic"/></feMerge>
    </filter>
  </defs>
  <rect width="420" height="300" fill="url(#bg)"/>
  <rect width="420" height="300" fill="url(#dots)"/>
  <ellipse cx="210" cy="145" rx="170" ry="130" fill="url(#rad)"/>

  <path d="M210 40 L322 78 V150 C322 214 274 250 210 274 C146 250 98 214 98 150 V78 Z"
        fill="none" stroke="#A78BFA" stroke-width="2" opacity="0.30"/>

  <g filter="url(#glow)">
    <path d="M184 150 V126 A26 26 0 0 1 236 126 V150" fill="none" stroke="url(#pg)"
          stroke-width="9" stroke-linecap="round"/>
    <rect x="164" y="150" width="92" height="82" rx="16" fill="#0d1030" stroke="url(#pg)" stroke-width="3"/>
    <circle cx="210" cy="182" r="9" fill="url(#pg)"/>
    <path d="M210 188 L205 206 H215 Z" fill="url(#pg)"/>
  </g>

  <g>
    <rect x="150" y="250" width="120" height="22" rx="11" fill="#ffffff" opacity="0.07"/>
    <circle cx="170" cy="261" r="3" fill="#CBACF9"/>
    <circle cx="182" cy="261" r="3" fill="#CBACF9"/>
    <circle cx="194" cy="261" r="3" fill="#CBACF9"/>
    <circle cx="206" cy="261" r="3" fill="#CBACF9"/>
    <circle cx="218" cy="261" r="3" fill="#CBACF9"/>
    <circle cx="230" cy="261" r="3" fill="#CBACF9"/>
    <path d="M244 261 L249 266 L258 255" stroke="#34D399" stroke-width="2.4" fill="none"
          stroke-linecap="round" stroke-linejoin="round"/>
  </g>

  <g filter="url(#glow)" transform="translate(342,52) rotate(22)">
    <circle cx="0" cy="0" r="10" fill="#0d1030" stroke="url(#pg)" stroke-width="2.6"/>
    <circle cx="0" cy="0" r="3.2" fill="url(#pg)"/>
    <path d="M8 8 L28 28 M22 28 L28 22 M16 22 L22 16" stroke="url(#pg)" stroke-width="3"
          fill="none" stroke-linecap="round" stroke-linejoin="round"/>
  </g>

  <g>
    <rect x="24" y="262" width="150" height="24" rx="12" fill="#ffffff" opacity="0.06"/>
    <circle cx="40" cy="274" r="4" fill="#34D399"/>
    <text x="52" y="278" font-family="ui-monospace,Menlo,monospace" font-size="11" fill="#c9cffb">AES • encrypted</text>
  </g>
  <text x="24" y="42" font-family="ui-monospace,Menlo,monospace" font-size="13" fill="#CBACF9" font-weight="700">VAULT</text>
</svg>
