<svg xmlns="http://www.w3.org/2000/svg" viewBox="0 0 400 300" fill="none">
  <defs>
    <linearGradient id="bg" x1="0" y1="0" x2="400" y2="300" gradientUnits="userSpaceOnUse">
      <stop stop-color="#0a0d20"/><stop offset="1" stop-color="#151934"/>
    </linearGradient>
    <radialGradient id="rg" cx="0.2" cy="0.15" r="0.7">
      <stop stop-color="#E4383A" stop-opacity="0.24"/><stop offset="1" stop-color="#E4383A" stop-opacity="0"/>
    </radialGradient>
  </defs>
  <rect width="400" height="300" fill="url(#bg)"/>
  <rect width="400" height="300" fill="url(#rg)"/>
  <path d="M49 28 L70 40 V64 L49 76 L28 64 V40 Z" fill="#2a1013" stroke="#E4383A" stroke-width="2.4"/>
  <path d="M42 46 L49 52 L42 58" stroke="#E4383A" stroke-width="3" fill="none" stroke-linecap="round" stroke-linejoin="round"/>
  <line x1="51" y1="59" x2="59" y2="59" stroke="#E4383A" stroke-width="3" stroke-linecap="round"/>
  <text x="86" y="60" font-family="Inter,Arial,sans-serif" font-size="21" font-weight="700" fill="#ffffff">Try<tspan fill="#E4383A">Hack</tspan>Me</text>
  <text x="30" y="182" font-family="Inter,Arial,sans-serif" font-size="72" font-weight="800" fill="#E4383A">70+</text>
  <text x="34" y="208" font-family="Inter,Arial,sans-serif" font-size="16" fill="#c9cffb">Rooms Completed</text>
  <g transform="translate(30,236)">
    <rect x="0" y="0" width="150" height="34" rx="17" fill="#ffffff" opacity="0.06"/>
    <path d="M20 8 L30 12 V19 C30 25 25.5 28.5 20 30 C14.5 28.5 10 25 10 19 V12 Z" fill="none" stroke="#E4383A" stroke-width="2"/>
    <text x="42" y="23" font-family="Inter,Arial,sans-serif" font-size="14" font-weight="600" fill="#ffb3b4">12 Badges</text>
  </g>
  <g transform="translate(192,236)">
    <rect x="0" y="0" width="178" height="34" rx="17" fill="#ffffff" opacity="0.06"/>
    <text x="18" y="23" font-family="Inter,Arial,sans-serif" font-size="14" font-weight="600" fill="#ffb3b4">Rank #145,647</text>
  </g>
</svg>
